<svg width="273" height="87" viewBox="0 0 273 87" fill="none" xmlns="http://www.w3.org/2000/svg">
<path d="M2.36765 28.1532L5.55731 32.5358C8.76562 36.7546 15.2382 45.7657 21.5802 52.1963C27.9409 58.8726 34.2642 62.9686 40.7928 54.3671C47.1348 45.7657 53.4768 23.6477 60.0054 23.7705C66.3287 23.6477 72.6894 45.7657 79.0314 52.1963C85.504 58.8726 91.902 49.8616 98.244 54.3671C104.698 58.8726 111.115 76.0755 117.457 69.6449C123.873 62.9686 130.327 32.6587 136.669 34.7067C143.067 36.7546 149.54 52.74 155.882 70.0658C162.242 87.5554 168.566 87.5554 175.094 76.6193C182.323 66.1514 185.852 62.0566 193.625 56.2911C201.825 51.0002 206.991 58.8726 213.333 49.9845C219.805 41.2602 226.203 15.0462 232.545 10.6636C238.999 6.44476 245.416 23.6477 251.758 25.9823C258.175 28.1532 264.629 15.0462 267.8 8.49272L270.971 1.93924" stroke="#8DDD2B" stroke-width="3.82353" stroke-linecap="round"/>
</svg>
