<?xml version="1.0" standalone="no"?>
<!DOCTYPE svg PUBLIC "-//W3C//DTD SVG 20010904//EN"
 "http://www.w3.org/TR/2001/REC-SVG-20010904/DTD/svg10.dtd">
<svg version="1.0" xmlns="http://www.w3.org/2000/svg"
 width="700.000000pt" height="700.000000pt" viewBox="0 0 700.000000 700.000000"
 preserveAspectRatio="xMidYMid meet">
<metadata>
Created by potrace 1.14, written by Peter Selinger 2001-2017
</metadata>
<g transform="translate(0.000000,700.000000) scale(0.100000,-0.100000)"
fill="#000000" stroke="none">
<path d="M760 6788 c-375 -41 -679 -316 -749 -679 -11 -58 -9 -2855 2 -2919 4
-19 9 -60 12 -90 19 -179 120 -591 175 -715 5 -11 25 -60 45 -110 124 -304
314 -610 551 -885 93 -108 287 -300 384 -378 36 -29 73 -60 83 -68 217 -177
548 -366 854 -488 537 -215 1152 -295 1713 -226 108 14 130 17 243 35 25 4
183 41 302 70 51 12 276 90 363 124 218 87 495 236 664 356 31 22 66 47 78 55
13 8 70 53 127 99 583 465 993 1112 1152 1815 16 72 32 147 35 166 23 138 31
210 41 360 3 41 6 671 6 1400 1 1408 2 1385 -48 1530 -26 76 -30 84 -92 180
-121 189 -352 331 -596 366 -64 10 -5259 11 -5345 2z m4495 -1336 c149 -56
236 -201 213 -352 -20 -130 -116 -234 -248 -270 -35 -10 -437 -13 -1790 -13
-960 0 -1763 3 -1784 7 -104 20 -199 93 -246 190 -26 54 -29 70 -26 141 4 98
27 155 92 218 38 38 103 80 124 80 3 1 22 6 43 12 27 8 529 11 1800 10 l1762
0 60 -23z m-1703 -1563 c72 -24 106 -46 196 -126 37 -33 130 -116 207 -184 77
-68 145 -128 151 -134 6 -5 44 -39 84 -75 74 -65 159 -140 215 -191 17 -15 39
-36 51 -46 103 -89 354 -314 395 -353 100 -97 142 -236 113 -376 -16 -81 -46
-136 -105 -199 -83 -88 -200 -135 -319 -128 -114 7 -194 49 -336 178 -48 44
-108 98 -133 120 -25 22 -64 56 -86 76 -22 20 -103 91 -180 159 -77 68 -144
128 -150 134 -5 6 -44 40 -85 76 -41 36 -90 79 -109 97 -43 39 1 69 -335 -232
-56 -49 -106 -94 -112 -100 -6 -5 -39 -35 -74 -65 -35 -30 -75 -66 -90 -80
-15 -14 -56 -50 -90 -80 -35 -30 -75 -66 -90 -80 -127 -123 -219 -180 -316
-197 -193 -35 -385 75 -456 260 -25 65 -31 178 -14 245 28 104 78 168 237 306
19 16 72 64 119 106 47 42 100 90 119 106 18 16 43 38 55 49 13 11 56 49 96
85 72 63 159 141 230 205 37 33 193 170 249 220 19 17 42 37 50 45 118 112
208 172 286 191 61 15 164 9 227 -12z"/>
</g>
</svg>
